<?xml version="1.0" encoding="UTF-8" standalone="no"?>
<svg
   xmlns:dc="http://purl.org/dc/elements/1.1/"
   xmlns:cc="http://creativecommons.org/ns#"
   xmlns:rdf="http://www.w3.org/1999/02/22-rdf-syntax-ns#"
   xmlns:svg="http://www.w3.org/2000/svg"
   xmlns="http://www.w3.org/2000/svg"
   xmlns:sodipodi="http://sodipodi.sourceforge.net/DTD/sodipodi-0.dtd"
   xmlns:inkscape="http://www.inkscape.org/namespaces/inkscape"
   version="1.1"
   x="0px"
   y="0px"
   viewBox="0 0 100 100"
   enable-background="new 0 0 100 100"
   xml:space="preserve"
   id="svg12"
   sodipodi:docname="Speaker_1.svg"
   width="100"
   height="100"
   inkscape:version="0.92.4 5da689c313, 2019-01-14"><metadata
     id="metadata18"><rdf:RDF><cc:Work
         rdf:about=""><dc:format>image/svg+xml</dc:format><dc:type
           rdf:resource="http://purl.org/dc/dcmitype/StillImage" /><dc:title /></cc:Work></rdf:RDF></metadata><defs
     id="defs16" /><sodipodi:namedview
     pagecolor="#ffffff"
     bordercolor="#666666"
     borderopacity="1"
     objecttolerance="10"
     gridtolerance="10"
     guidetolerance="10"
     inkscape:pageopacity="0"
     inkscape:pageshadow="2"
     inkscape:window-width="1441"
     inkscape:window-height="1005"
     id="namedview14"
     showgrid="false"
     fit-margin-top="0"
     fit-margin-left="0"
     fit-margin-right="0"
     fit-margin-bottom="0"
     inkscape:zoom="3.776"
     inkscape:cx="10.710961"
     inkscape:cy="73.164797"
     inkscape:window-x="299"
     inkscape:window-y="0"
     inkscape:window-maximized="0"
     inkscape:current-layer="svg12" /><g
     id="g6"
     style="fill:#eaeaea;fill-opacity:0.7647059"><path
       d="m 47.207,12.718 c -0.948,-0.372 -1.938,-0.552 -2.917,-0.552 -2.187,0 -4.327,0.897 -5.872,2.565 L 26.043,28.094 h -8.005 c -4.418,0 -8,3.582 -8,8 v 28.085 c 0,4.418 3.582,8 8,8 h 7.996 l 12.374,13.412 c 1.545,1.675 3.69,2.575 5.882,2.575 0.978,0 1.964,-0.179 2.91,-0.549 3.068,-1.199 5.088,-4.157 5.088,-7.451 v -60 c 0,-3.291 -2.016,-6.247 -5.081,-7.448 z M 44.288,80.166 29.538,64.179 h -11.5 V 36.094 h 11.5 l 14.75,-15.927 z"
       id="path2"
       inkscape:connector-curvature="0"
       style="fill:#eaeaea;fill-opacity:0.7647059" /><path
       d="m 72.008,31.366 c -0.789,-2.063 -3.102,-3.097 -5.164,-2.308 -2.064,0.79 -3.098,3.102 -2.309,5.165 1.968,5.143 2.965,10.548 2.965,16.065 0,5.519 -0.998,10.923 -2.965,16.064 -0.789,2.063 0.244,4.376 2.307,5.166 0.471,0.18 0.953,0.265 1.429,0.265 1.61,0 3.128,-0.979 3.737,-2.571 2.316,-6.059 3.492,-12.425 3.492,-18.924 0,-6.496 -1.175,-12.863 -3.492,-18.922 z"
       id="path4"
       inkscape:connector-curvature="0"
       style="fill:#eaeaea;fill-opacity:0.7647059" /></g></svg>